<mxfile host="app.diagrams.net" modified="2021-04-16T17:39:11.546Z" agent="5.0 (Windows NT 10.0; Win64; x64) AppleWebKit/537.36 (KHTML, like Gecko) Chrome/89.0.4389.114 Safari/537.36" etag="HO11hkUDBH_VMCi2kTOH" version="14.6.1" type="github">
  <diagram id="8eoFBvLspKocWnlmnAdx" name="Page-1">
    <mxGraphModel dx="700" dy="1082" grid="1" gridSize="10" guides="1" tooltips="1" connect="1" arrows="1" fold="1" page="1" pageScale="1" pageWidth="827" pageHeight="1169" math="0" shadow="0">
      <root>
        <mxCell id="0" />
        <mxCell id="1" parent="0" />
        <mxCell id="C8EBwWzCdowbKbfuH1Lj-1" value="Фигура" style="rounded=0;whiteSpace=wrap;html=1;" vertex="1" parent="1">
          <mxGeometry x="530" y="120" width="140" height="50" as="geometry" />
        </mxCell>
        <mxCell id="C8EBwWzCdowbKbfuH1Lj-2" value="Игрок" style="whiteSpace=wrap;html=1;" vertex="1" parent="1">
          <mxGeometry x="90" y="180" width="130" height="40" as="geometry" />
        </mxCell>
        <mxCell id="C8EBwWzCdowbKbfuH1Lj-3" value="" style="rounded=0;whiteSpace=wrap;html=1;" vertex="1" parent="1">
          <mxGeometry x="530" y="170" width="140" height="40" as="geometry" />
        </mxCell>
        <mxCell id="C8EBwWzCdowbKbfuH1Lj-5" value="" style="endArrow=classic;html=1;exitX=1;exitY=0.5;exitDx=0;exitDy=0;entryX=0;entryY=0.5;entryDx=0;entryDy=0;" edge="1" parent="1" source="C8EBwWzCdowbKbfuH1Lj-2" target="C8EBwWzCdowbKbfuH1Lj-1">
          <mxGeometry width="50" height="50" relative="1" as="geometry">
            <mxPoint x="330" y="290" as="sourcePoint" />
            <mxPoint x="380" y="240" as="targetPoint" />
          </mxGeometry>
        </mxCell>
        <mxCell id="C8EBwWzCdowbKbfuH1Lj-6" value="Позиция&amp;nbsp;&lt;br&gt;Внешность фигуры&lt;br&gt;&lt;br&gt;&lt;br&gt;" style="text;html=1;strokeColor=none;fillColor=none;align=center;verticalAlign=middle;whiteSpace=wrap;rounded=0;" vertex="1" parent="1">
          <mxGeometry x="530" y="160" width="140" height="80" as="geometry" />
        </mxCell>
        <mxCell id="C8EBwWzCdowbKbfuH1Lj-7" value="" style="endArrow=classic;html=1;exitX=1;exitY=0.5;exitDx=0;exitDy=0;entryX=0;entryY=0.5;entryDx=0;entryDy=0;" edge="1" parent="1" source="C8EBwWzCdowbKbfuH1Lj-2" target="C8EBwWzCdowbKbfuH1Lj-8">
          <mxGeometry width="50" height="50" relative="1" as="geometry">
            <mxPoint x="450" y="310" as="sourcePoint" />
            <mxPoint x="520" y="380" as="targetPoint" />
          </mxGeometry>
        </mxCell>
        <mxCell id="C8EBwWzCdowbKbfuH1Lj-8" value="Поле" style="rounded=0;whiteSpace=wrap;html=1;" vertex="1" parent="1">
          <mxGeometry x="530" y="350" width="140" height="50" as="geometry" />
        </mxCell>
        <mxCell id="C8EBwWzCdowbKbfuH1Lj-9" value="Раземерность&lt;br&gt;" style="rounded=0;whiteSpace=wrap;html=1;" vertex="1" parent="1">
          <mxGeometry x="530" y="400" width="140" height="50" as="geometry" />
        </mxCell>
        <mxCell id="C8EBwWzCdowbKbfuH1Lj-10" value="" style="rounded=0;whiteSpace=wrap;html=1;" vertex="1" parent="1">
          <mxGeometry x="90" y="220" width="130" height="70" as="geometry" />
        </mxCell>
        <mxCell id="C8EBwWzCdowbKbfuH1Lj-11" value="Никнейм&lt;br&gt;Номер игрока" style="text;html=1;strokeColor=none;fillColor=none;align=center;verticalAlign=middle;whiteSpace=wrap;rounded=0;" vertex="1" parent="1">
          <mxGeometry x="90" y="225" width="130" height="65" as="geometry" />
        </mxCell>
        <mxCell id="C8EBwWzCdowbKbfuH1Lj-12" value="Выбор фигуры&lt;br&gt;Выбор размерности поля&lt;br&gt;Ход" style="rounded=0;whiteSpace=wrap;html=1;" vertex="1" parent="1">
          <mxGeometry x="90" y="290" width="130" height="60" as="geometry" />
        </mxCell>
        <mxCell id="C8EBwWzCdowbKbfuH1Lj-15" value="-" style="rounded=0;whiteSpace=wrap;html=1;" vertex="1" parent="1">
          <mxGeometry x="530" y="210" width="140" height="60" as="geometry" />
        </mxCell>
        <mxCell id="C8EBwWzCdowbKbfuH1Lj-17" value="Проверка на линию&lt;br&gt;Проверка на забитое поле" style="rounded=0;whiteSpace=wrap;html=1;" vertex="1" parent="1">
          <mxGeometry x="530" y="450" width="140" height="60" as="geometry" />
        </mxCell>
      </root>
    </mxGraphModel>
  </diagram>
</mxfile>
